<?xml version="1.0" encoding="UTF-8" standalone="no"?>
<svg
   xmlns:dc="http://purl.org/dc/elements/1.1/"
   xmlns:cc="http://creativecommons.org/ns#"
   xmlns:rdf="http://www.w3.org/1999/02/22-rdf-syntax-ns#"
   xmlns:svg="http://www.w3.org/2000/svg"
   xmlns="http://www.w3.org/2000/svg"
   xmlns:sodipodi="http://sodipodi.sourceforge.net/DTD/sodipodi-0.dtd"
   xmlns:inkscape="http://www.inkscape.org/namespaces/inkscape"
   width="256"
   height="256"
   viewBox="0 0 67.733333 67.733333"
   version="1.1"
   id="svg8"
   inkscape:version="1.0.2 (e86c870879, 2021-01-15)"
   sodipodi:docname="dlsql.svg">
  <defs
     id="defs2" />
  <sodipodi:namedview
     id="base"
     pagecolor="#ffffff"
     bordercolor="#666666"
     borderopacity="1.0"
     inkscape:pageopacity="0.0"
     inkscape:pageshadow="2"
     inkscape:zoom="1.4823067"
     inkscape:cx="93.285489"
     inkscape:cy="127.02014"
     inkscape:document-units="mm"
     inkscape:current-layer="layer1"
     inkscape:document-rotation="0"
     showgrid="true"
     units="px"
     width="256px"
     inkscape:window-width="1869"
     inkscape:window-height="1054"
     inkscape:window-x="51"
     inkscape:window-y="26"
     inkscape:window-maximized="1">
    <inkscape:grid
       type="xygrid"
       id="grid837"
       originx="0"
       originy="0"
       empspacing="4" />
  </sodipodi:namedview>
  <metadata
     id="metadata5">
    <rdf:RDF>
      <cc:Work
         rdf:about="">
        <dc:format>image/svg+xml</dc:format>
        <dc:type
           rdf:resource="http://purl.org/dc/dcmitype/StillImage" />
        <dc:title />
      </cc:Work>
    </rdf:RDF>
  </metadata>
  <g
     inkscape:label="Layer 1"
     inkscape:groupmode="layer"
     id="layer1">
    <path
       id="path1536"
       style="fill:#008080;fill-opacity:1;stroke:#008080;stroke-width:11.3386;stroke-linecap:round;stroke-linejoin:round;stroke-miterlimit:0;stroke-dasharray:none;stroke-opacity:1;paint-order:stroke fill markers"
       d="M 24 16 L 24 240 L 232 240 L 232 56 L 200 16 L 24 16 z M 96.001953 22.554688 L 160.00391 22.554688 A 9.4497638 9.4497638 0 0 1 169.45312 32.003906 L 169.45312 140.55469 L 192.00391 140.55469 A 9.4497638 9.4497638 0 0 1 199.15039 156.18164 L 135.14844 230.17969 A 9.4497638 9.4497638 0 0 1 120.85742 230.17969 L 56.857422 156.18359 A 9.4488189 9.4488189 0 0 1 56.804688 156.11719 A 9.4488189 9.4488189 0 0 1 56.6875 155.97852 A 9.4488189 9.4488189 0 0 1 56.414062 155.63086 A 9.4488189 9.4488189 0 0 1 56.384766 155.59375 A 9.4488189 9.4488189 0 0 1 56.125 155.2168 A 9.4488189 9.4488189 0 0 1 56.089844 155.16602 A 9.4488189 9.4488189 0 0 1 56 155.00977 A 9.4488189 9.4488189 0 0 1 55.830078 154.73633 A 9.4488189 9.4488189 0 0 1 55.617188 154.35352 A 9.4488189 9.4488189 0 0 1 55.59375 154.30273 A 9.4488189 9.4488189 0 0 1 55.572266 154.26562 A 9.4488189 9.4488189 0 0 1 55.373047 153.84375 A 9.4488189 9.4488189 0 0 1 55.203125 153.4375 A 9.4488189 9.4488189 0 0 1 55.1875 153.39453 A 9.4488189 9.4488189 0 0 1 55.033203 152.96484 A 9.4488189 9.4488189 0 0 1 55.009766 152.90625 A 9.4488189 9.4488189 0 0 1 54.9375 152.64844 A 9.4488189 9.4488189 0 0 1 54.871094 152.43359 A 9.4488189 9.4488189 0 0 1 54.841797 152.30078 A 9.4488189 9.4488189 0 0 1 54.759766 151.97656 A 9.4488189 9.4488189 0 0 1 54.730469 151.80664 A 9.4488189 9.4488189 0 0 1 54.664062 151.4375 A 9.4488189 9.4488189 0 0 1 54.568359 150.44141 A 9.4488189 9.4488189 0 0 1 54.552734 150.00586 A 9.4488189 9.4488189 0 0 1 54.552734 149.96875 A 9.4488189 9.4488189 0 0 1 54.560547 149.83594 A 9.4488189 9.4488189 0 0 1 54.576172 149.4375 A 9.4488189 9.4488189 0 0 1 54.605469 149.06055 A 9.4488189 9.4488189 0 0 1 54.640625 148.74219 A 9.4488189 9.4488189 0 0 1 54.640625 148.7207 A 9.4488189 9.4488189 0 0 1 54.707031 148.33008 A 9.4488189 9.4488189 0 0 1 54.757812 148.05664 A 9.4488189 9.4488189 0 0 1 54.794922 147.90039 A 9.4488189 9.4488189 0 0 1 54.90625 147.45898 A 9.4488189 9.4488189 0 0 1 55.046875 146.99414 A 9.4488189 9.4488189 0 0 1 55.060547 146.94922 A 9.4488189 9.4488189 0 0 1 55.150391 146.70508 A 9.4488189 9.4488189 0 0 1 55.296875 146.34375 A 9.4488189 9.4488189 0 0 1 55.328125 146.26953 A 9.4488189 9.4488189 0 0 1 55.490234 145.9082 A 9.4488189 9.4488189 0 0 1 55.556641 145.76758 A 9.4488189 9.4488189 0 0 1 55.705078 145.48828 A 9.4488189 9.4488189 0 0 1 55.792969 145.32422 A 9.4488189 9.4488189 0 0 1 55.955078 145.05273 A 9.4488189 9.4488189 0 0 1 56.095703 144.83008 A 9.4488189 9.4488189 0 0 1 56.271484 144.57227 A 9.4488189 9.4488189 0 0 1 56.28125 144.55664 A 9.4488189 9.4488189 0 0 1 56.525391 144.23242 A 9.4488189 9.4488189 0 0 1 56.730469 143.98047 A 9.4488189 9.4488189 0 0 1 56.8125 143.88477 A 9.4488189 9.4488189 0 0 1 56.996094 143.67188 A 9.4488189 9.4488189 0 0 1 57.173828 143.47852 A 9.4488189 9.4488189 0 0 1 57.351562 143.30273 A 9.4488189 9.4488189 0 0 1 57.529297 143.125 A 9.4488189 9.4488189 0 0 1 57.675781 142.98438 A 9.4488189 9.4488189 0 0 1 57.824219 142.85156 A 9.4488189 9.4488189 0 0 1 57.978516 142.72656 A 9.4488189 9.4488189 0 0 1 58.03125 142.68164 A 9.4488189 9.4488189 0 0 1 58.376953 142.41602 A 9.4488189 9.4488189 0 0 1 58.570312 142.27539 A 9.4488189 9.4488189 0 0 1 59.271484 141.82617 A 9.4488189 9.4488189 0 0 1 59.654297 141.61133 A 9.4488189 9.4488189 0 0 1 59.707031 141.58203 A 9.4488189 9.4488189 0 0 1 60.105469 141.39844 A 9.4488189 9.4488189 0 0 1 60.164062 141.36914 A 9.4488189 9.4488189 0 0 1 60.429688 141.25781 A 9.4488189 9.4488189 0 0 1 60.613281 141.18359 A 9.4488189 9.4488189 0 0 1 60.6875 141.15234 A 9.4488189 9.4488189 0 0 1 61.101562 141.01172 A 9.4488189 9.4488189 0 0 1 61.521484 140.88672 A 9.4488189 9.4488189 0 0 1 61.787109 140.82031 A 9.4488189 9.4488189 0 0 1 62.503906 140.67188 A 9.4488189 9.4488189 0 0 1 62.5625 140.66406 A 9.4488189 9.4488189 0 0 1 63.167969 140.5918 A 9.4488189 9.4488189 0 0 1 63.566406 140.5625 A 9.4488189 9.4488189 0 0 1 64.001953 140.55469 L 64.068359 140.55469 L 86.554688 140.55469 L 86.554688 32.003906 A 9.4497638 9.4497638 0 0 1 96.001953 22.554688 z "
       transform="scale(0.26458333)" />
    <text
       xml:space="preserve"
       style="font-size:28.2223px;line-height:1.25;font-family:serif;-inkscape-font-specification:'serif, Normal';letter-spacing:0px;word-spacing:0px;white-space:pre;inline-size:68.7927;stroke-width:0.264583"
       x="22.665672"
       y="30.532635"
       id="text835"
       transform="translate(-4.508644,-5.0789982)" />
    <path
       id="path2547-5"
       style="color:#000000;font-style:normal;font-variant:normal;font-weight:normal;font-stretch:normal;font-size:medium;line-height:normal;font-family:sans-serif;font-variant-ligatures:normal;font-variant-position:normal;font-variant-caps:normal;font-variant-numeric:normal;font-variant-alternates:normal;font-variant-east-asian:normal;font-feature-settings:normal;font-variation-settings:normal;text-indent:0;text-align:start;text-decoration:none;text-decoration-line:none;text-decoration-style:solid;text-decoration-color:#000000;letter-spacing:normal;word-spacing:normal;text-transform:none;writing-mode:lr-tb;direction:ltr;text-orientation:mixed;dominant-baseline:auto;baseline-shift:baseline;text-anchor:start;white-space:normal;shape-padding:0;shape-margin:0;inline-size:0;clip-rule:nonzero;display:inline;overflow:visible;visibility:visible;isolation:auto;mix-blend-mode:normal;color-interpolation:sRGB;color-interpolation-filters:linearRGB;solid-color:#000000;solid-opacity:1;vector-effect:none;fill:#008080;fill-opacity:1;fill-rule:nonzero;stroke:none;stroke-width:4.99999;stroke-linecap:round;stroke-linejoin:round;stroke-miterlimit:4;stroke-dasharray:none;stroke-dashoffset:0;stroke-opacity:1;color-rendering:auto;image-rendering:auto;shape-rendering:auto;text-rendering:auto;enable-background:accumulate;stop-color:#000000"
       d="M 27.89959,11.627455 V 40.348184 A 2.50025,2.50025 0 0 1 25.4,42.847772 H 22.401733 L 33.866666,56.105878 45.331599,42.847772 H 42.333333 A 2.50025,2.50025 0 0 1 39.833227,40.348184 V 11.627455 Z" />
  </g>
</svg>
