<?xml version="1.0" encoding="UTF-8" standalone="no"?>
<svg
   xmlns:dc="http://purl.org/dc/elements/1.1/"
   xmlns:cc="http://creativecommons.org/ns#"
   xmlns:rdf="http://www.w3.org/1999/02/22-rdf-syntax-ns#"
   xmlns:svg="http://www.w3.org/2000/svg"
   xmlns="http://www.w3.org/2000/svg"
   xmlns:sodipodi="http://sodipodi.sourceforge.net/DTD/sodipodi-0.dtd"
   xmlns:inkscape="http://www.inkscape.org/namespaces/inkscape"
   width="256"
   height="256"
   viewBox="0 0 67.733333 67.733333"
   version="1.1"
   id="svg8"
   inkscape:version="1.0.2 (e86c870879, 2021-01-15)"
   sodipodi:docname="dldb.svg">
  <defs
     id="defs2" />
  <sodipodi:namedview
     id="base"
     pagecolor="#ffffff"
     bordercolor="#666666"
     borderopacity="1.0"
     inkscape:pageopacity="0.0"
     inkscape:pageshadow="2"
     inkscape:zoom="1.945103"
     inkscape:cx="228.78908"
     inkscape:cy="170.45463"
     inkscape:document-units="mm"
     inkscape:current-layer="layer1"
     inkscape:document-rotation="0"
     showgrid="true"
     units="px"
     width="256px"
     inkscape:window-width="1869"
     inkscape:window-height="1054"
     inkscape:window-x="51"
     inkscape:window-y="26"
     inkscape:window-maximized="1">
    <inkscape:grid
       type="xygrid"
       id="grid837"
       originx="0"
       originy="0"
       empspacing="4" />
  </sodipodi:namedview>
  <metadata
     id="metadata5">
    <rdf:RDF>
      <cc:Work
         rdf:about="">
        <dc:format>image/svg+xml</dc:format>
        <dc:type
           rdf:resource="http://purl.org/dc/dcmitype/StillImage" />
        <dc:title />
      </cc:Work>
    </rdf:RDF>
  </metadata>
  <g
     inkscape:label="Layer 1"
     inkscape:groupmode="layer"
     id="layer1">
    <text
       xml:space="preserve"
       style="font-size:28.2223px;line-height:1.25;font-family:serif;-inkscape-font-specification:'serif, Normal';letter-spacing:0px;word-spacing:0px;white-space:pre;inline-size:68.7927;stroke-width:0.264583"
       x="22.665672"
       y="30.532635"
       id="text835"
       transform="translate(-4.508644,-5.0789982)" />
    <path
       id="rect839"
       style="fill:#008080;fill-opacity:1;stroke:none;stroke-width:0.999995;stroke-miterlimit:4;stroke-dasharray:3.99999, 3.99999;stroke-dashoffset:0;stop-color:#000000"
       d="M 128 8 C 94.826788 8 63.727444 11.842966 40.421875 18.832031 C 15.17649 26.413605 8.5195313 34.937806 8.5195312 38.386719 C 8.5195312 41.835628 15.190568 50.332489 40.421875 57.914062 C 52.541221 61.55068 66.790852 64.333366 82.333984 66.175781 L 82.333984 25.552734 A 5.6698583 5.6698583 0 0 1 88.003906 19.882812 L 168.00195 19.882812 A 5.6698583 5.6698583 0 0 1 173.66992 25.552734 L 173.66992 66.175781 C 189.20785 64.333339 203.45361 61.549972 215.57812 57.914062 C 240.82351 50.332489 247.48047 41.835628 247.48047 38.386719 C 247.48047 34.937806 240.80943 26.413605 215.57812 18.832031 C 192.28658 11.843022 161.17322 8 128 8 z M 8.5195312 60.167969 L 8.5195312 99.162109 C 8.5195312 102.61102 15.190568 111.10593 40.421875 118.6875 C 52.541202 122.32414 66.79088 125.10681 82.333984 126.94922 L 82.333984 81.460938 C 65.424041 79.53633 49.876142 76.541251 36.660156 72.572266 C 24.880852 69.032054 15.4353 64.86275 8.5195312 60.167969 z M 247.48047 60.167969 C 240.57878 64.862981 231.11915 69.032224 219.33984 72.572266 C 206.12487 76.532767 190.57837 79.528122 173.66992 81.455078 L 173.66992 126.94922 C 189.20782 125.10678 203.45363 122.3234 215.57812 118.6875 C 240.82351 111.10593 247.48047 102.61108 247.48047 99.162109 L 247.48047 60.167969 z M 8.5195312 120.94336 L 8.5195312 159.93555 C 8.5195312 163.38446 15.190568 171.87936 40.421875 179.46094 C 51.598211 182.81461 64.58871 185.44251 78.730469 187.27734 L 51.873047 157.4375 A 5.6692913 5.6692913 0 0 1 51.785156 157.3418 A 5.6692913 5.6692913 0 0 1 51.615234 157.14258 A 5.6692913 5.6692913 0 0 1 51.445312 156.91992 A 5.6692913 5.6692913 0 0 1 51.341797 156.77344 A 5.6692913 5.6692913 0 0 1 51.166016 156.50781 A 5.6692913 5.6692913 0 0 1 50.972656 156.16797 A 5.6692913 5.6692913 0 0 1 50.935547 156.10156 A 5.6692913 5.6692913 0 0 1 50.869141 155.96094 A 5.6692913 5.6692913 0 0 1 50.78125 155.76172 A 5.6692913 5.6692913 0 0 1 50.662109 155.45898 A 5.6692913 5.6692913 0 0 1 50.566406 155.15625 A 5.6692913 5.6692913 0 0 1 50.537109 155.05273 A 5.6692913 5.6692913 0 0 1 50.492188 154.88281 A 5.6692913 5.6692913 0 0 1 50.439453 154.66211 A 5.6692913 5.6692913 0 0 1 50.417969 154.5293 A 5.6692913 5.6692913 0 0 1 50.373047 154.25586 A 5.6692913 5.6692913 0 0 1 50.357422 154.09375 A 5.6692913 5.6692913 0 0 1 50.34375 153.93164 A 5.6692913 5.6692913 0 0 1 50.328125 153.62891 A 5.6692913 5.6692913 0 0 1 50.328125 153.54688 A 5.6692913 5.6692913 0 0 1 50.328125 153.50977 A 5.6692913 5.6692913 0 0 1 50.335938 153.36328 A 5.6692913 5.6692913 0 0 1 50.345703 153.16406 A 5.6692913 5.6692913 0 0 1 50.357422 152.94922 A 5.6692913 5.6692913 0 0 1 50.396484 152.70508 A 5.6692913 5.6692913 0 0 1 50.410156 152.63086 A 5.6692913 5.6692913 0 0 1 50.449219 152.41016 A 5.6692913 5.6692913 0 0 1 50.5 152.17383 A 5.6692913 5.6692913 0 0 1 50.566406 151.9375 A 5.6692913 5.6692913 0 0 1 50.669922 151.61328 A 5.6692913 5.6692913 0 0 1 50.789062 151.32422 A 5.6692913 5.6692913 0 0 1 50.927734 151.02148 A 5.6692913 5.6692913 0 0 1 50.994141 150.89648 A 5.6692913 5.6692913 0 0 1 51.039062 150.80859 A 5.6692913 5.6692913 0 0 1 51.164062 150.58789 A 5.6692913 5.6692913 0 0 1 51.320312 150.35156 A 5.6692913 5.6692913 0 0 1 51.378906 150.26953 A 5.6692913 5.6692913 0 0 1 51.482422 150.12891 A 5.6692913 5.6692913 0 0 1 51.644531 149.92188 A 5.6692913 5.6692913 0 0 1 51.755859 149.79688 A 5.6692913 5.6692913 0 0 1 51.865234 149.67188 A 5.6692913 5.6692913 0 0 1 52.021484 149.51562 A 5.6692913 5.6692913 0 0 1 52.162109 149.37695 A 5.6692913 5.6692913 0 0 1 52.205078 149.33203 A 5.6692913 5.6692913 0 0 1 52.404297 149.16211 A 5.6692913 5.6692913 0 0 1 52.626953 148.99219 A 5.6692913 5.6692913 0 0 1 52.773438 148.88867 A 5.6692913 5.6692913 0 0 1 52.806641 148.86719 A 5.6692913 5.6692913 0 0 1 53.109375 148.67578 A 5.6692913 5.6692913 0 0 1 53.388672 148.51953 A 5.6692913 5.6692913 0 0 1 53.728516 148.35742 A 5.6692913 5.6692913 0 0 1 53.943359 148.26953 A 5.6692913 5.6692913 0 0 1 54.171875 148.1875 A 5.6692913 5.6692913 0 0 1 54.466797 148.0918 A 5.6692913 5.6692913 0 0 1 54.480469 148.08398 A 5.6692913 5.6692913 0 0 1 55.123047 147.95117 A 5.6692913 5.6692913 0 0 1 55.300781 147.92188 A 5.6692913 5.6692913 0 0 1 55.455078 147.90625 A 5.6692913 5.6692913 0 0 1 55.609375 147.89258 A 5.6692913 5.6692913 0 0 1 55.619141 147.89258 A 5.6692913 5.6692913 0 0 1 55.921875 147.87695 A 5.6692913 5.6692913 0 0 1 56.003906 147.87695 L 56.083984 147.87695 L 82.333984 147.87695 L 82.333984 142.23438 C 65.424072 140.30978 49.876121 137.31661 36.660156 133.34766 C 24.880852 129.80744 15.4353 125.63821 8.5195312 120.94336 z M 247.48047 120.94336 C 240.57878 125.63838 231.11915 129.80756 219.33984 133.34766 C 206.12489 137.30815 190.57834 140.30158 173.66992 142.22852 L 173.66992 147.87695 L 200.00195 147.87695 A 5.6698583 5.6698583 0 0 1 204.21484 157.3418 L 177.27148 187.27734 C 191.40921 185.44253 204.39672 182.81403 215.57812 179.46094 C 240.82351 171.87936 247.48047 163.38446 247.48047 159.93555 L 247.48047 120.94336 z M 8.5195312 181.7168 L 8.5195312 220.70898 C 8.5195312 224.15789 15.190568 232.65475 40.421875 240.23633 C 63.713365 247.22534 94.826788 251.09766 128 251.09766 C 161.17322 251.09766 192.27256 247.22523 215.57812 240.23633 C 240.82351 232.65475 247.48047 224.12865 247.48047 220.67969 L 247.48047 181.7168 C 240.57878 186.41182 231.11915 190.5517 219.33984 194.0918 C 203.16183 198.95037 183.49864 202.36357 162.10156 204.12891 L 132.21094 237.33984 A 5.6698583 5.6698583 0 0 1 123.78711 237.33984 L 93.904297 204.13867 C 72.504893 202.38227 52.839685 198.98008 36.660156 194.12109 C 24.880852 190.58087 15.4353 186.41164 8.5195312 181.7168 z "
       transform="scale(0.26458333)" />
    <path
       id="path1893"
       style="color:#000000;font-style:normal;font-variant:normal;font-weight:normal;font-stretch:normal;font-size:medium;line-height:normal;font-family:sans-serif;font-variant-ligatures:normal;font-variant-position:normal;font-variant-caps:normal;font-variant-numeric:normal;font-variant-alternates:normal;font-variant-east-asian:normal;font-feature-settings:normal;font-variation-settings:normal;text-indent:0;text-align:start;text-decoration:none;text-decoration-line:none;text-decoration-style:solid;text-decoration-color:#000000;letter-spacing:normal;word-spacing:normal;text-transform:none;writing-mode:lr-tb;direction:ltr;text-orientation:mixed;dominant-baseline:auto;baseline-shift:baseline;text-anchor:start;white-space:normal;shape-padding:0;shape-margin:0;inline-size:0;clip-rule:nonzero;display:inline;overflow:visible;visibility:visible;isolation:auto;mix-blend-mode:normal;color-interpolation:sRGB;color-interpolation-filters:linearRGB;solid-color:#000000;solid-opacity:1;vector-effect:none;fill:#008080;fill-opacity:1;fill-rule:nonzero;stroke:none;stroke-width:3;stroke-linecap:round;stroke-linejoin:round;stroke-miterlimit:4;stroke-dasharray:none;stroke-dashoffset:0;stroke-opacity:1;color-rendering:auto;image-rendering:auto;shape-rendering:auto;text-rendering:auto;enable-background:accumulate;stop-color:#000000"
       d="M 24.783499,8.6299642 V 40.997497 a 1.50015,1.50015 0 0 1 -1.49965,1.49965 H 18.185971 L 33.8677,59.922957 49.547361,42.497147 h -5.097362 a 1.50015,1.50015 0 0 1 -1.500166,-1.49965 V 8.6299642 Z" />
  </g>
</svg>
