<?xml version="1.0" encoding="UTF-8" standalone="no"?>
<svg
   xmlns:dc="http://purl.org/dc/elements/1.1/"
   xmlns:cc="http://creativecommons.org/ns#"
   xmlns:rdf="http://www.w3.org/1999/02/22-rdf-syntax-ns#"
   xmlns:svg="http://www.w3.org/2000/svg"
   xmlns="http://www.w3.org/2000/svg"
   xmlns:sodipodi="http://sodipodi.sourceforge.net/DTD/sodipodi-0.dtd"
   xmlns:inkscape="http://www.inkscape.org/namespaces/inkscape"
   width="256"
   height="256"
   viewBox="0 0 67.733333 67.733333"
   version="1.1"
   id="svg8"
   inkscape:version="1.0.2 (e86c870879, 2021-01-15)"
   sodipodi:docname="bin.svg">
  <defs
     id="defs2" />
  <sodipodi:namedview
     id="base"
     pagecolor="#ffffff"
     bordercolor="#666666"
     borderopacity="1.0"
     inkscape:pageopacity="0.0"
     inkscape:pageshadow="2"
     inkscape:zoom="3.357103"
     inkscape:cx="129.22663"
     inkscape:cy="118.00169"
     inkscape:document-units="mm"
     inkscape:current-layer="layer1"
     inkscape:document-rotation="0"
     showgrid="true"
     units="px"
     width="256px"
     inkscape:window-width="1869"
     inkscape:window-height="1054"
     inkscape:window-x="51"
     inkscape:window-y="26"
     inkscape:window-maximized="1"
     inkscape:snap-page="false"
     inkscape:snap-grids="true">
    <inkscape:grid
       type="xygrid"
       id="grid837"
       originx="0"
       originy="0"
       empspacing="4" />
  </sodipodi:namedview>
  <metadata
     id="metadata5">
    <rdf:RDF>
      <cc:Work
         rdf:about="">
        <dc:format>image/svg+xml</dc:format>
        <dc:type
           rdf:resource="http://purl.org/dc/dcmitype/StillImage" />
        <dc:title />
      </cc:Work>
    </rdf:RDF>
  </metadata>
  <g
     inkscape:label="Layer 1"
     inkscape:groupmode="layer"
     id="layer1">
    <text
       xml:space="preserve"
       style="font-size:28.2223px;line-height:1.25;font-family:serif;-inkscape-font-specification:'serif, Normal';letter-spacing:0px;word-spacing:0px;white-space:pre;inline-size:68.7927;stroke-width:0.264583"
       x="22.665672"
       y="30.532635"
       id="text835" />
    <path
       id="rect835"
       style="fill:#008080;fill-opacity:1;stroke:#008080;stroke-width:11.3386;stroke-linecap:round;stroke-linejoin:miter;stroke-miterlimit:4.1;stroke-dasharray:none;paint-order:stroke fill markers;stop-color:#000000"
       d="m 24,96 v 124 c 0,8 8,20 20.000001,20 L 212,240 c 12,0 20,-11.136 20,-20 l 0,-124 z m 24,16 h 16 c 4.432003,0 8,3.568 8,8 v 96 c 0,4.432 -3.567997,8 -8,8 H 48 c -4.432003,0 -8,-3.568 -8,-8 v -96 c 0,-4.432 3.567997,-8 8,-8 z m 48,0 h 16 c 4.432,0 8,3.568 8,8 v 96 c 0,4.432 -3.568,8 -8,8 H 96 c -4.432003,0 -8,-3.568 -8,-8 v -96 c 0,-4.432 3.567997,-8 8,-8 z m 48,0 h 16 c 4.432,0 8,3.568 8,8 v 96 c 0,4.432 -3.568,8 -8,8 h -16 c -4.432,0 -8,-3.568 -8,-8 v -96 c 0,-4.432 3.568,-8 8,-8 z m 48,0 h 16 c 4.432,0 8,3.568 8,8 v 96 c 0,4.432 -3.568,8 -8,8 h -16 c -4.432,0 -8,-3.568 -8,-8 v -96 c 0,-4.432 3.568,-8 8,-8 z"
       transform="scale(0.26458333)"
       sodipodi:nodetypes="cccccccssssssssssssssssssssssssssssssssssss" />
    <path
       id="rect835-9"
       style="fill:#008080;stroke:#008080;stroke-width:3;stroke-linecap:round;stroke-linejoin:miter;stroke-miterlimit:4.1;stroke-dasharray:none;paint-order:stroke fill markers;stop-color:#000000"
       d="m 6.35,17.4625 v -4.233333 c 0,-2.345268 1.8880663,-4.2333336 4.233333,-4.2333336 h 46.566666 c 2.345267,0 4.233334,1.8880666 4.233334,4.2333346 V 17.4625 Z"
       sodipodi:nodetypes="ccccccc" />
    <rect
       style="fill:#008080;stroke:#008080;stroke-width:3;stroke-linecap:square;stroke-linejoin:round;stroke-miterlimit:4.1;stroke-dasharray:none;paint-order:stroke fill markers;stop-color:#000000"
       id="rect860"
       width="8.4666662"
       height="6.3500004"
       x="29.633333"
       y="4.2333331"
       rx="2.1166666"
       ry="2.1166666" />
  </g>
</svg>
