<?xml version="1.0" encoding="UTF-8" standalone="no"?>
<svg
   xmlns:dc="http://purl.org/dc/elements/1.1/"
   xmlns:cc="http://creativecommons.org/ns#"
   xmlns:rdf="http://www.w3.org/1999/02/22-rdf-syntax-ns#"
   xmlns:svg="http://www.w3.org/2000/svg"
   xmlns="http://www.w3.org/2000/svg"
   xmlns:sodipodi="http://sodipodi.sourceforge.net/DTD/sodipodi-0.dtd"
   xmlns:inkscape="http://www.inkscape.org/namespaces/inkscape"
   width="256"
   height="256"
   viewBox="0 0 67.733333 67.733333"
   version="1.1"
   id="svg8"
   inkscape:version="1.0.2 (e86c870879, 2021-01-15)"
   sodipodi:docname="ok.svg">
  <defs
     id="defs2" />
  <sodipodi:namedview
     id="base"
     pagecolor="#ffffff"
     bordercolor="#666666"
     borderopacity="1.0"
     inkscape:pageopacity="0.0"
     inkscape:pageshadow="2"
     inkscape:zoom="1.4823067"
     inkscape:cx="93.285489"
     inkscape:cy="127.02014"
     inkscape:document-units="mm"
     inkscape:current-layer="layer1"
     inkscape:document-rotation="0"
     showgrid="true"
     units="px"
     width="256px"
     inkscape:window-width="1869"
     inkscape:window-height="1054"
     inkscape:window-x="51"
     inkscape:window-y="26"
     inkscape:window-maximized="1">
    <inkscape:grid
       type="xygrid"
       id="grid837"
       originx="0"
       originy="0"
       empspacing="4" />
  </sodipodi:namedview>
  <metadata
     id="metadata5">
    <rdf:RDF>
      <cc:Work
         rdf:about="">
        <dc:format>image/svg+xml</dc:format>
        <dc:type
           rdf:resource="http://purl.org/dc/dcmitype/StillImage" />
        <dc:title></dc:title>
      </cc:Work>
    </rdf:RDF>
  </metadata>
  <g
     inkscape:label="Layer 1"
     inkscape:groupmode="layer"
     id="layer1">
    <path
       id="path2612"
       style="fill:#008080;fill-opacity:1;stroke:none;stroke-width:18.8976;stroke-linecap:round;stroke-linejoin:round;stroke-miterlimit:4;stroke-dasharray:none;stroke-opacity:1;paint-order:stroke fill markers;stop-color:#000000"
       d="M 128 8 A 120 120 0 0 0 8 128 A 120 120 0 0 0 128 248 A 120 120 0 0 0 248 128 A 120 120 0 0 0 128 8 z M 191.90039 64.878906 A 15.11811 15.11811 0 0 1 201.3418 68.113281 A 15.11811 15.11811 0 0 1 203.88867 89.34375 L 115.88867 201.3418 A 15.119622 15.119622 0 0 1 91.904297 201.06836 L 43.908203 137.07422 A 15.11811 15.11811 0 0 1 46.925781 115.90234 A 15.11811 15.11811 0 0 1 68.097656 118.92969 L 104.27734 167.16992 L 180.11133 70.660156 A 15.11811 15.11811 0 0 1 191.90039 64.878906 z "
       transform="scale(0.26458333)" />
    <text
       xml:space="preserve"
       style="font-size:28.2223px;line-height:1.25;font-family:serif;-inkscape-font-specification:'serif, Normal';letter-spacing:0px;word-spacing:0px;white-space:pre;inline-size:68.7927;stroke-width:0.264583"
       x="22.665672"
       y="30.532635"
       id="text835"
       transform="translate(-4.508644,-5.0789982)" />
  </g>
</svg>
